<svg xmlns="http://www.w3.org/2000/svg" xmlns:xlink="http://www.w3.org/1999/xlink" viewBox="0,0,256,256" width="48px" height="48px" fill-rule="nonzero"><g fill="none" fill-rule="nonzero" stroke="none" stroke-width="1" stroke-linecap="butt" stroke-linejoin="miter" stroke-miterlimit="10" stroke-dasharray="" stroke-dashoffset="0" font-family="none" font-weight="none" font-size="none" text-anchor="none" style="mix-blend-mode: normal"><g transform="scale(5.33333,5.33333)"><path d="M41,38h-35c-1.1,0 -2,-0.9 -2,-2v-25c0,-1.1 0.9,-2 2,-2h35c1.1,0 2,0.9 2,2v25c0,1.1 -0.9,2 -2,2z" fill="#00a623"></path><path d="M12,14h-2c-0.6,0 -1,0.4 -1,1v17c0,0.6 0.4,1 1,1h2c5,0 9,-4.3 9,-9.5c0,-5.2 -4,-9.5 -9,-9.5zM37,14h-2c-5,0 -9,4.3 -9,9.5c0,5.2 4,9.5 9,9.5h2c0.6,0 1,-0.4 1,-1v-17c0,-0.6 -0.4,-1 -1,-1z" fill="#ffffff"></path></g></g></svg>